<?xml version="1.0" encoding="UTF-8"?> <!-- Generator: Adobe Illustrator 25.3.1, SVG Export Plug-In . SVG Version: 6.00 Build 0) --> <svg xmlns="http://www.w3.org/2000/svg" xmlns:xlink="http://www.w3.org/1999/xlink" version="1.1" id="Layer_1" x="0px" y="0px" width="1000px" height="660px" viewBox="0 0 1000 660" style="enable-background:new 0 0 1000 660;" xml:space="preserve"> <style type="text/css"> .st0{fill:#F2F2F2;} .st1{fill-rule:evenodd;clip-rule:evenodd;fill:#2A2522;stroke:#FFFFFF;stroke-width:2.1437;} .st2{fill-rule:evenodd;clip-rule:evenodd;fill:#FFFFFF;} .st3{fill-rule:evenodd;clip-rule:evenodd;fill:#D21217;} .st4{fill-rule:evenodd;clip-rule:evenodd;fill:#3DA9E0;} .st5{fill-rule:evenodd;clip-rule:evenodd;fill:#2A2522;stroke:#2A2522;stroke-width:1.3113;} .st6{fill:none;stroke:#2A2522;stroke-width:1.3113;} .st7{fill-rule:evenodd;clip-rule:evenodd;fill:#2A2522;} .st8{fill-rule:evenodd;clip-rule:evenodd;fill:#FCC200;} .st9{fill:none;stroke:#FFCB00;stroke-width:0.5195;} .st10{fill-rule:evenodd;clip-rule:evenodd;fill:#13A438;} .st11{fill:none;stroke:#2A2522;stroke-width:5.3697;} .st12{fill:none;stroke:#2A2522;stroke-width:4.2808;} .st13{fill:none;stroke:#FFFFFF;stroke-width:2.1437;} .st14{fill:none;stroke:#2A2522;stroke-width:2.240401e-03;} .st15{fill:none;stroke:#2A2522;stroke-width:8.5864;} .st16{fill-rule:evenodd;clip-rule:evenodd;fill:#FFFFFF;stroke:#2A2522;stroke-width:4.2808;} </style> <rect y="0.1" class="st0" width="1000" height="660"></rect> <g> <path class="st1" d="M616.3,409.5c-27.8,32.8-68.8,53.7-115.1,53.7c-45.6,0-86.5-20.5-113.9-52.5L354.8,450 c36.7,39.4,88.8,64.1,146.8,64.1c58.3,0,110.9-24.7,147.5-64.5L616.3,409.5L616.3,409.5z"></path> <path class="st1" d="M590.4,259.2v174.2c0,5-3.1,9.3-7.7,11.2l-80.7,31.3l-81.1-31.3c-4.6-1.5-7.7-6.2-7.7-11.2V259.2L590.4,259.2 L590.4,259.2z"></path> <polygon class="st2" points="417.3,394 417.3,286.7 586.1,286.7 586.1,394 "></polygon> <path class="st3" d="M586.1,383.6c-1.5,2.3-5,3.9-9.3,3.9s-8.1-1.5-9.3-4.2c-1.5,2.3-5,4.2-9.3,4.2s-7.7-1.5-9.3-3.9 c-1.5,2.3-5,3.9-9.3,3.9c-4.2,0-7.7-1.5-9.3-4.2l0,0c-1.5,2.3-5,4.2-9.3,4.2s-7.7-1.5-9.3-3.9c-1.5,2.3-5,3.9-9.3,3.9 s-7.7-1.5-9.3-4.2l0,0c-1.5,2.3-5,4.2-9.3,4.2c-4.2,0-7.7-1.5-9.3-3.9c-1.5,2.3-5,3.9-9.3,3.9s-7.7-1.5-9.3-4.2l0,0 c-1.5,2.3-5,4.2-9.3,4.2c-4.2,0-7.7-1.5-9.3-3.9l0,0c-1.5,2.3-5,3.9-9.3,3.9s-8.1-1.5-9.3-4.2v-0.4v47.5c0,4.6,3.1,8.9,7.3,10.4 l75.3,30.5l76.9-29.7c4.2-1.5,7.3-5.8,7.3-10.4V383.6L586.1,383.6L586.1,383.6z"></path> <path class="st4" d="M586.1,379c-1.5,2.3-5,3.9-9.3,3.9s-8.1-1.5-9.3-3.9c-1.5,2.3-5,3.9-9.3,3.9s-7.7-1.5-9.3-3.9 c-1.5,2.3-5,3.9-9.3,3.9c-4.2,0-7.7-1.5-9.3-3.9l0,0c-1.5,2.3-5,3.9-9.3,3.9s-7.7-1.5-9.3-3.9c-1.5,2.3-5,3.9-9.3,3.9 s-7.7-1.5-9.3-3.9l0,0c-1.5,2.3-5,3.9-9.3,3.9c-4.2,0-7.7-1.5-9.3-3.9c-1.5,2.3-5,3.9-9.3,3.9s-7.7-1.5-9.3-3.9l0,0 c-1.5,2.3-5,3.9-9.3,3.9c-4.2,0-7.7-1.5-9.3-3.9l0,0c-1.5,2.3-5,3.9-9.3,3.9s-8.1-1.5-9.3-3.9v-6.2c1.5,2.3,5,4.2,9.3,4.2 c4.2,0,7.7-1.5,9.3-3.9c1.5,2.3,5,3.9,9.3,3.9s7.7-1.5,9.3-4.2l0,0c1.5,2.3,5,4.2,9.3,4.2c4.2,0,7.7-1.5,9.3-3.9 c1.5,2.3,5,3.9,9.3,3.9s7.7-1.5,9.3-4.2l0,0c1.5,2.3,5,4.2,9.3,4.2s7.7-1.5,9.3-3.9c1.5,2.3,5,3.9,9.3,3.9s7.7-1.5,9.3-4.2l0,0 c1.5,2.3,5,4.2,9.3,4.2c4.2,0,7.7-1.5,9.3-3.9c1.5,2.3,5,3.9,9.3,3.9s7.7-1.5,9.3-4.2c1.5,2.3,5,4.2,9.3,4.2s7.7-1.5,9.3-3.9V379 L586.1,379z"></path> <path class="st4" d="M586.1,368.2c-1.5,2.3-5,3.9-9.3,3.9s-8.1-1.5-9.3-3.9c-1.5,2.3-5,3.9-9.3,3.9s-7.7-1.5-9.3-3.9 c-1.5,2.3-5,3.9-9.3,3.9c-4.2,0-7.7-1.5-9.3-3.9l0,0c-1.5,2.3-5,3.9-9.3,3.9s-7.7-1.5-9.3-3.9c-1.5,2.3-5,3.9-9.3,3.9 s-7.7-1.5-9.3-3.9l0,0c-1.5,2.3-5,3.9-9.3,3.9c-4.2,0-7.7-1.5-9.3-3.9c-1.5,2.3-5,3.9-9.3,3.9s-7.7-1.5-9.3-3.9l0,0 c-1.5,2.3-5,3.9-9.3,3.9c-4.2,0-7.7-1.5-9.3-3.9l0,0c-1.5,2.3-5,3.9-9.3,3.9s-8.1-1.5-9.3-3.9v-5.8c1.5,2.3,5,4.2,9.3,4.2 c4.2,0,7.7-1.5,9.3-3.9c1.5,2.3,5,3.9,9.3,3.9s7.7-1.5,9.3-4.2l0,0c1.5,2.3,5,4.2,9.3,4.2c4.2,0,7.7-1.5,9.3-3.9 c1.5,2.3,5,3.9,9.3,3.9s7.7-1.5,9.3-4.2l0,0c1.5,2.3,5,4.2,9.3,4.2s7.7-1.5,9.3-3.9c1.5,2.3,5,3.9,9.3,3.9s7.7-1.5,9.3-4.2l0,0 c1.5,2.3,5,4.2,9.3,4.2c4.2,0,7.7-1.5,9.3-3.9c1.5,2.3,5,3.9,9.3,3.9s7.7-1.5,9.3-4.2c1.5,2.3,5,4.2,9.3,4.2s7.7-1.5,9.3-3.9V368.2 L586.1,368.2z"></path> <path class="st5" d="M514.3,437.7c0,0,8.1,12.7,3.9,9.3c-3.1-2.7-7.3-8.9-10.8-14.3l-17,7c0,0-9.7,12-7.7,6.6 c1.5-3.9,6.2-10,10.4-14.7l-11.6-13.9c0,0-14.3-5.4-8.5-5c3.9,0.4,11.6,3.1,17,5.4l9.7-15.5c0,0,0.8-15.5,2.3-9.7 c0.8,3.9,0.8,12,0,18.2l17.8,4.2c0,0,14.7-3.9,10-0.8c-3.5,2.3-10.8,4.2-16.6,5.8L514.3,437.7L514.3,437.7z"></path> <path class="st2" d="M500.8,434.2c0,0.4,0.4,0.4,0.4,0.4c0.4,0,0.4,0,0.4-0.4c0-0.4,0.4-1.5,0.4-3.5c0,0,0-7.3,5.4,0.4 c15.1,22-6.6,22-6.6,22h0.4c0,0-21.6,0-6.6-22c5.4-7.7,5.4-0.4,5.4-0.4C500.4,433,500.4,433.8,500.8,434.2L500.8,434.2L500.8,434.2 z"></path> <path class="st6" d="M500.8,434.2l0.4,0.4l0.4-0.4c0-0.4,0.4-1.5,0.4-3.5c0,0,0-7.3,5.4,0.4c15.1,22-6.6,22-6.6,22h0.4 c0,0-21.6,0-6.6-22c5.4-7.7,5.4-0.4,5.4-0.4C500.4,433,500.4,433.8,500.8,434.2L500.8,434.2L500.8,434.2z"></path> <path class="st2" d="M489.6,425.7c-0.4,0-0.4,0.4-0.4,0.4c0,0.4,0.4,0.4,0.4,0.4l0,0c0.4,0,1.5,0,3.5-0.8c0,0,7-2.3,1.2,5.4 c-16.2,21.2-22.8,0.8-22.8,0.8l0,0c0,0-6.6-20.5,18.9-12.7c9.3,2.7,2.3,5,2.3,5C490.7,424.9,490,425.3,489.6,425.7L489.6,425.7z"></path> <path class="st6" d="M489.6,425.7c-0.4,0-0.4,0.4-0.4,0.4l0.4,0.4l0,0c0,0,1.5,0,3.5-0.8c0,0,7-2.3,1.2,5.4 c-16.2,21.2-22.8,0.8-22.8,0.8l0,0c0,0-6.6-20.5,18.9-12.7c9.3,2.7,2.3,5,2.3,5C490.7,424.9,490,425.3,489.6,425.7L489.6,425.7 L489.6,425.7z"></path> <path class="st2" d="M494.2,412.2c-0.4,0-0.4,0-0.8,0c0,0-0.4,0.4,0,0.8l0,0c0,0.4,0.4,1.5,1.9,3.1c0,0,4.2,5.8-4.6,2.7 c-25.1-8.9-7.7-21.6-7.7-21.6l0,0c0,0,17.4-12.4,18.2,13.9c0.4,9.7-4.2,3.5-4.2,3.5C495.4,413.4,495,412.6,494.2,412.2L494.2,412.2 z"></path> <path class="st6" d="M494.2,412.2h-0.8v0.8l0,0c0,0,0.4,1.5,1.9,3.1c0,0,4.2,5.8-4.6,2.7c-25.1-8.9-7.7-21.6-7.7-21.6l0,0 c0,0,17.4-12.4,18.2,13.9c0.4,9.7-4.2,3.5-4.2,3.5C495.4,413.4,495,412.6,494.2,412.2L494.2,412.2L494.2,412.2z"></path> <path class="st2" d="M508.5,413c0-0.4,0-0.4,0-0.8c0,0-0.4,0-0.8,0c-0.4,0.4-1.2,0.8-2.3,2.7c0,0-4.2,5.8-4.2-3.5 c0.8-26.7,18.2-13.9,18.2-13.9l0,0c0,0,17.4,12.7-7.7,21.6c-8.9,3.1-4.6-2.7-4.6-2.7C508.1,414.1,508.5,413.4,508.5,413L508.5,413z "></path> <path class="st6" d="M508.5,413v-0.8h-0.8c-0.4,0.4-1.2,0.8-2.3,2.7c0,0-4.2,5.8-4.2-3.5c0.8-26.7,18.2-13.9,18.2-13.9l0,0 c0,0,17.4,12.7-7.7,21.6c-8.9,3.1-4.6-2.7-4.6-2.7C508.1,414.1,508.5,413,508.5,413L508.5,413L508.5,413z"></path> <path class="st2" d="M512.4,426.5c0.4,0,0.4,0,0.4-0.4c0,0,0-0.4-0.4-0.4c-0.4-0.4-1.2-0.8-3.5-1.5c0,0-7-2.3,2.3-5 c25.5-7.7,18.9,12.7,18.9,12.7l0,0c0,0-7,20.5-22.8-0.8c-5.8-7.3,1.2-5.4,1.2-5.4C510.8,426.5,512,426.5,512.4,426.5L512.4,426.5z"></path> <path class="st6" d="M512.4,426.5l0.4-0.4c0,0,0-0.4-0.4-0.4c-0.4-0.4-1.2-0.8-3.5-1.5c0,0-7-2.3,2.3-5 c25.5-7.7,18.9,12.7,18.9,12.7l0,0c0,0-7,20.5-22.8-0.8c-5.8-7.3,1.2-5.4,1.2-5.4C510.8,426.5,512.4,426.5,512.4,426.5L512.4,426.5 L512.4,426.5z"></path> <path class="st7" d="M486.5,402.1c0,0-1.5,1.2-3.1,1.5c-1.5,0.4-1.9,1.5-2.3,1.5c0,0-0.8,1.9-1.2,1.2c-0.4-0.8,0.4-2.3,0.4-2.3 c0-0.4,0.8-1.2,2.3-1.9c1.5-0.4,3.1-1.5,3.1-1.5s1.5-1.2,2.3-2.3c0.8-1.2,1.9-1.5,2.3-1.5c0,0,1.5-0.8,2.3,0 c0.4,0.8-1.5,0.8-1.5,0.8c-0.4,0-1.5,0.4-2.3,1.5C488,401,486.5,402.1,486.5,402.1L486.5,402.1z"></path> <path class="st7" d="M515.8,402.1c0,0-1.5-1.2-2.3-2.3c-0.8-1.2-1.9-1.5-2.3-1.5c0,0-1.9,0-1.5-0.8c0.4-0.8,2.3,0,2.3,0 c0.4,0,1.5,0.4,2.3,1.5c0.8,1.2,2.3,2.3,2.3,2.3s1.5,1.2,3.1,1.5c1.5,0.4,1.9,1.5,2.3,1.5c0,0,1.2,1.5,0.4,2.3 c-0.4,0.8-1.2-1.2-1.2-1.2c-0.4-0.4-0.8-1.2-2.3-1.5C517.4,403.3,515.8,402.1,515.8,402.1L515.8,402.1z"></path> <path class="st7" d="M525.1,430c0,0,0.8-1.9,1.5-3.1c0.8-1.2,0.8-2.3,0.8-2.7c0,0-0.4-1.9,0.4-1.5c0.8,0.4,0.8,1.9,0.8,1.9 c0,0.4,0,1.5-0.8,2.7c-0.8,1.2-1.5,3.1-1.5,3.1s-0.4,1.9-0.4,3.5s-0.8,2.3-1.2,2.7c0,0-1.2,1.5-1.9,1.2c-0.8-0.4,0.8-1.5,0.8-1.5 c0-0.4,1.2-1.2,0.8-2.7C524.3,431.9,525.1,430,525.1,430L525.1,430z"></path> <path class="st7" d="M501.2,447.3c0,0,1.9,0,3.5,0.4c1.5,0.4,2.3,0,2.7,0c0,0,1.5-1.2,1.5,0c0,0.8-1.5,1.5-1.5,1.5 c-0.4,0-1.5,0.8-2.7,0c-1.5-0.4-3.5-0.4-3.5-0.4s-1.9,0-3.5,0.4c-1.5,0.4-2.3,0-2.7,0c0,0-1.5-0.4-1.5-1.5c0-0.8,1.5,0,1.5,0 c0.4,0,1.5,0.8,2.7,0C499.2,447.3,501.2,447.3,501.2,447.3L501.2,447.3z"></path> <path class="st7" d="M477.2,430c0,0,0.4,1.9,0.4,3.5s0.8,2.3,1.2,2.7c0,0,1.5,1.2,0.8,1.5c-0.8,0.4-1.9-1.2-1.9-1.2 c-0.4-0.4-1.2-1.2-1.2-2.7c0-1.5-0.4-3.5-0.4-3.5s-0.8-1.9-1.5-3.1c-0.8-1.2-0.8-2.3-0.8-2.7c0,0,0-1.5,0.8-1.9 c0.8-0.4,0.4,1.5,0.4,1.5c0,0.4,0,1.5,0.8,2.7C476.4,428.4,477.2,430,477.2,430L477.2,430z"></path> <path class="st8" d="M501.2,417.6c-2.7,0-5,2.3-5,5s2.3,5,5,5s5-2.3,5-5C505.8,419.5,503.9,417.6,501.2,417.6L501.2,417.6z"></path> <path class="st9" d="M501.2,417.6c-2.7,0-5,2.3-5,5s2.3,5,5,5s5-2.3,5-5C505.8,419.5,503.9,417.6,501.2,417.6L501.2,417.6 L501.2,417.6z"></path> <path class="st7" d="M510,329.5l0.8,13.1l11.2-7.3l3.5,5.8l-13.1,7.7v2.7c0,0,15.1,8.5-3.5,8.1l0,0c-6.6,5.4-12.7,0-12.7,0 c-18.5,0.4-3.5-8.1-3.5-8.1v-2.7l-11.6-8.9l2.7-5.8l10.4,8.9l0.8-13.1L510,329.5L510,329.5z"></path> <path class="st10" d="M523.9,340.7c10.8,12.4,18.5-0.8,18.5-0.8c13.5-3.5,5.4-12.7,5.4-12.7c14.3-9.3-2.3-16.6-2.3-16.6 c0-12.4-10.4-11.6-10.4-11.6c-10.8-9.7-21.6,1.2-21.6,1.2c-16.6-13.5-29,1.9-29,1.9s-10.4-7.3-15.1,4.2c0,0-16.6-0.4-10.4,16.6 c0,0-12.7,13.1,3.9,19.3c0,0,8.9,16.6,21.2,0.8c0,0,7.7,0.4,6.6-10c0,0,9.7,3.9,18.5-0.4c0,0,3.1,6.6,9.3,2.7c0,0-1.2,4.2,5,5 L523.9,340.7L523.9,340.7z"></path> <path class="st11" d="M523.9,340.7c10.8,12.4,18.5-0.8,18.5-0.8c13.5-3.5,5.4-12.7,5.4-12.7c14.3-9.3-2.3-16.6-2.3-16.6 c0-12.4-10.4-11.6-10.4-11.6c-10.8-9.7-21.6,1.2-21.6,1.2c-16.6-13.5-29,1.9-29,1.9s-10.4-7.3-15.1,4.2c0,0-16.6-0.4-10.4,16.6 c0,0-12.7,13.1,3.9,19.3c0,0,8.9,16.6,21.2,0.8c0,0,7.7,0.4,6.6-10c0,0,9.7,3.9,18.5-0.4c0,0,3.1,6.6,9.3,2.7c0,0-1.2,4.2,5,5 L523.9,340.7L523.9,340.7z"></path> <path class="st8" d="M380.3,446.6l0.8,0.8c-2.7,5-3.1,8.5-1.2,10c1.5,1.2,3.1,0.8,5-1.2c0.8-0.8,1.2-1.9,1.2-2.3 c0-1.2-0.8-2.3-1.5-3.9c-1.5-3.5-1.5-6.2,1.5-9.7c3.1-3.5,7-4.6,9.3-2.3c1.2,0.8,1.5,2.3,1.5,3.9l1.9-0.4l0.8,0.4l-5.8,7.3 l-0.8-0.8c2.3-4.6,2.7-7.7,1.2-9.3c-1.2-1.2-3.1-0.8-4.6,1.2c-1.9,2.3-0.8,3.5,0.8,6.2c0.8,1.5,1.5,2.7,1.2,4.6 c-0.4,1.5-1.2,3.5-2.7,5.4c-3.1,3.5-7,4.6-9.7,2.3c-1.2-1.2-1.9-2.7-1.9-4.6l-2.3,0.8l-0.8-0.8L380.3,446.6L380.3,446.6z"></path> <path class="st8" d="M402.3,448.9c2.7-1.2,5-1.2,7,0c1.9,1.5,2.7,3.5,2.7,6.6c-0.4,2.7-1.5,5.8-3.5,8.9c-2.3,3.1-4.2,5-7,6.2 s-5.4,1.2-7.3,0c-1.9-1.2-2.7-3.5-2.3-6.6c0.4-3.1,1.5-5.8,3.5-8.9C397.3,452.4,399.6,450,402.3,448.9L402.3,448.9z M394.9,469.4 c1.9,1.5,5-0.8,9.7-7c4.2-6.2,5.4-10,3.5-11.6c-1.9-1.5-5,0.8-9.7,7.3C394.2,464,393,467.8,394.9,469.4L394.9,469.4L394.9,469.4z"></path> <path class="st8" d="M423.9,461.2l-0.8-0.4c-0.8-0.4-1.2,0-1.9,1.2l-6.2,11.2c-2.3,3.9-2.3,6.6,0,7.7c1.2,0.4,2.3,0.4,3.1,0 c1.5-0.8,2.7-2.7,3.9-5.4l4.2-8.1c1.2-2.3,1.5-3.9,0-4.6l0,0l0.8-1.5l5,2.7l-0.8,1.5c-1.5-0.4-2.3,0.4-3.5,2.7l-4.6,8.5 c-1.2,2.3-2.3,4.2-3.9,5.4c-2.3,1.9-4.2,2.3-7,0.8c-3.5-1.9-4.2-5.4-1.5-10.4l6.6-12c0.8-1.2,0.8-1.5,0-2.3l-0.4-0.8l0.8-1.5l7,3.9 L423.9,461.2L423.9,461.2z"></path> <path class="st8" d="M443.6,469.7c-0.8-0.4-1.2,0-1.5,1.2l-6.6,17c-0.4,1.2-0.4,1.9,0.4,1.9l1.2,0.4l-0.8,1.5l-7.7-2.7l0.8-1.5 l1.2,0.4c0.8,0.4,1.2,0,1.5-1.2l6.6-17c0.4-1.2,0.4-1.5-0.4-1.9c-1.5-0.8-3.9,1.5-6.2,6.2l-0.8-0.8l3.9-8.9l12.7,5l-3.1,8.9 l-0.8-0.4C445.2,473.6,445.2,470.5,443.6,469.7L443.6,469.7z"></path> <path class="st8" d="M454.4,496c0.8,0.4,1.2,0,1.5-1.5l2.3-8.1l-5.4-1.5l-1.9,8.1c-0.4,1.2-0.4,1.9,0.4,1.9l1.2,0.4l-0.8,1.9 l-7.7-1.9l0.4-1.9l1.2,0.4c0.8,0.4,1.2,0,1.5-1.5l4.6-17.4c0.4-1.5,0.4-1.9-0.4-1.9l-1.2-0.4l0.4-1.9l7.7,1.9l-0.4,1.9l-1.2-0.4 c-0.8-0.4-1.2,0-1.5,1.5l-1.9,7.3l5.4,1.5l1.9-7.3c0.4-1.2,0.4-1.9-0.4-1.9l-1.2-0.4l0.4-1.5l7.7,2.3l-0.4,1.5l-1.2-0.4 c-0.8-0.4-1.2,0-1.5,1.5l-4.6,17.4c-0.4,1.5-0.4,1.9,0.4,1.9l1.2,0.4l-0.4,1.9l-7.7-1.9l0.4-1.9H454.4L454.4,496z"></path> <path class="st8" d="M474.9,500.3h1.2c0.4,0,0.8-0.4,0.8-0.8c0-0.4,0-0.4,0-1.2l-0.4-3.9l-5.4-0.8l-0.8,1.9 c-0.4,0.4-0.4,1.2-0.4,1.5c-0.4,1.5,0.4,2.3,1.9,2.3l-0.4,1.9l-5.8-0.8l0.4-1.9c1.2,0,2.3-1.5,3.5-4.2l7.7-18.2l1.5,0.4l2.3,22.8 c0,1.2,0.4,1.5,1.2,1.5l-0.4,1.9l-7-1.2L474.9,500.3L474.9,500.3z M471.8,491.8l4.2,0.8l-0.8-8.9L471.8,491.8L471.8,491.8z"></path> <path class="st8" d="M490.3,497.2c0,3.1,0.4,4.2,2.3,4.6v1.9h-6.2v-1.9c1.9,0,2.3-1.2,2.3-4.2l0.4-15.1c0-1.2,0-1.9-1.2-1.9h-1.2 v-1.9h7l3.1,15.1l3.5-15.1h6.6v1.9h-1.2c-0.8,0-1.2,0.4-1.2,1.9l-0.4,17.8c0,1.5,0,1.9,1.2,1.9h1.2v1.9h-7.7v-1.9h0.8 c0.8,0,1.2-0.4,1.2-1.9l0.4-18.9l-5,22.4H495l-4.2-22.4L490.3,497.2L490.3,497.2z"></path> <path class="st8" d="M518.9,501h1.2v1.9l-8.1,0.8v-1.9h1.2c0.8,0,1.2-0.4,0.8-1.9l-1.5-17.8c0-1.5-0.4-1.9-1.2-1.9H510l-0.4-1.5 l9.3-0.8c3.9-0.4,5.8,1.9,6.6,6.6c0.4,5-1.5,7.3-6.2,7.7c-0.8,0-1.2,0-1.9,0l0.8,7C517.8,501,517.8,501.4,518.9,501L518.9,501z M516.6,490.2c0.4,0,0.4,0,1.2,0c2.7-0.4,3.9-1.5,3.5-5.8c-0.4-3.9-1.5-5.4-3.9-5c-1.2,0-1.5,0.4-1.5,2.3L516.6,490.2L516.6,490.2z "></path> <path class="st8" d="M537.5,476.3c-0.8,0-0.8,0.8-0.8,1.9l3.5,17.8c0.4,1.5,0.4,1.5,1.5,1.5h1.2l0.4,1.9l-7.7,1.5l-0.4-1.9l1.2-0.4 c0.8,0,0.8-0.8,0.8-1.9l-3.9-17.8c-0.4-1.2-0.4-1.5-1.2-1.5c-1.5,0.4-2.3,3.5-1.5,8.5h-1.2l-1.5-9.3l13.5-2.7l2.3,9.3l-1.2,0.4 C540.9,478.6,539,475.9,537.5,476.3L537.5,476.3z"></path> <path class="st8" d="M547.1,475.5c0.8-2.7,1.9-4.6,4.2-5.4c2.3-0.8,4.6-0.4,6.6,1.9c1.9,1.9,3.9,4.6,5,8.1c1.2,3.5,1.5,6.6,0.8,9.3 c-0.8,3.1-1.9,5-4.2,5.8s-4.2,0-6.6-1.9s-3.9-4.6-5-8.1C547.1,481.7,546.7,478.2,547.1,475.5L547.1,475.5z M559.1,493.3 c2.3-0.8,2.3-4.6,0-12s-4.6-10.4-7-9.7c-2.3,0.8-2.3,4.6,0,12C554.5,491,556.8,494.1,559.1,493.3L559.1,493.3L559.1,493.3z"></path> <path class="st8" d="M571.8,488.3c1.5-1.2,1.5-2.3,0-5l-6.6-13.9h-0.4c-0.8-0.4-1.2-0.8-1.9-0.4h-0.4l-0.8-1.5l4.6-2.3l13.9,10.8 l-3.9-8.5c-1.5-3.1-2.3-3.9-4.2-3.1l-0.8-1.5l5.4-2.7l0.8,1.5c-1.5,0.8-1.5,1.9,0,5l8.1,17.4l-0.8,0.8l-17-13.5l5.4,11.6 c1.2,3.1,2.3,3.9,4.2,3.1l0.8,1.5l-5.4,2.7L571.8,488.3L571.8,488.3z"></path> <path class="st8" d="M603.5,454.3l-0.8,0.8c-3.9-3.9-5.8-4.6-8.5-2.7c-1.2,0.8-1.2,1.2-0.4,2.3l4.2,6.2h0.4 c1.5-1.2,1.5-2.7-0.4-5.8l0.8-0.8l6.6,9.7l-0.8,0.8c-2.3-2.7-3.5-3.5-5-2.3c0,0,0,0-0.4,0l4.6,7c0.8,1.2,1.2,1.5,1.9,0.8l1.2-0.8 l1.2,1.5l-7,4.6L600,474l0.8-0.8c0.8-0.4,0.8-0.8,0-1.9l-10-15.1c-0.8-1.2-1.2-1.5-1.9-0.8l-0.8,0.8l-1.2-1.5l11.2-7.7L603.5,454.3 L603.5,454.3z"></path> <path class="st8" d="M623.6,459.3c-1.5,1.2-3.1,1.5-5,1.2c-3.1-0.8-6.2-2.7-9.3-6.2c-2.3-2.7-3.9-5.4-4.2-8.1c-0.8-3.1,0-5.4,1.9-7 c1.2-1.2,2.3-1.2,4.2-1.2l-0.4-2.3l0.8-0.4l7,7.3l-0.8,0.8c-4.6-3.9-7.7-5-9.3-3.5c-1.9,1.9-0.8,5.4,4.2,11.2 c5,5.8,8.1,7.7,10.4,5.8c1.9-1.5,1.5-4.6-1.2-8.9l1.2-0.4C626.3,453.1,626.3,457,623.6,459.3L623.6,459.3z"></path> <path class="st2" d="M354.8,247.3l3.9,8.1l-11.2,3.1l3.5,7l11.2-3.1l3.5,7l-11.2,3.1l3.5,7l11.2-3.1l3.5,7l-11.2,3.1l3.5,7 l11.2-3.1l5,9.7c1.9-0.8,4.2-1.2,6.2-2.3l-26.3-52.1C359,246.1,357.1,246.9,354.8,247.3L354.8,247.3z"></path> <path class="st2" d="M385.3,250c-0.8-3.9,7.7-8.1,14.3-13.5l-8.5-18.2c-3.5,1.9-7.3,5-11.6,9.3c-1.2,1.2-1.9,2.3-2.7,3.5L385.3,250 L385.3,250z"></path> <path class="st3" d="M405.8,217.9c-2.3-3.1-7.7-3.5-14.7,0.4l8.9,18.2C406.1,231.4,411.2,225.2,405.8,217.9L405.8,217.9z"></path> <path class="st3" d="M360.9,245.3l26.3,52.5c7.3-3.1,13.5-7.3,15.5-10.4l-11.2-23.9l-5.4-12.4c-0.4-0.4-0.4-0.8-0.4-1.2l-8.9-18.9 C372.2,236.8,368.3,242.2,360.9,245.3L360.9,245.3z"></path> <path class="st3" d="M354.8,247.3c-3.5,0.8-7.7,0.8-12.7,0.4l5.4,10.8l11.2-3.1L354.8,247.3L354.8,247.3z"></path> <polygon class="st3" points="362.1,262.3 350.9,265.4 354.4,272.4 365.6,269.3 "></polygon> <polygon class="st3" points="369.1,276.2 357.9,279.3 361.3,286.3 372.5,283.2 "></polygon> <path class="st3" d="M364.8,293.2l4.2,8.1c3.9,0.4,8.1-0.4,12.4-1.5l-5-9.7L364.8,293.2L364.8,293.2z"></path> <path class="st2" d="M399.6,236.4l5,10c3.5-3.1,7.3-6.6,11.2-10l-9.3-16.6C410,226.4,405.4,231.8,399.6,236.4L399.6,236.4z"></path> <path class="st3" d="M386.1,251.1c0.4,0.4,0.8,0.8,1.2,1.2c5,3.5,10.8,0,17.8-5.8l-5-10C392.2,242.6,383,247.3,386.1,251.1 L386.1,251.1z"></path> <path class="st12" d="M416.2,236.4c-11.6,9.7-21.2,20.9-29,15.5c-0.4-0.4-0.8-0.8-1.2-1.2c-5.4-7,28.6-16.2,20.9-31.3L416.2,236.4 L416.2,236.4z M386.1,251.1c-5.8-7.3,31.3-17,19.7-33.2c-3.5-4.6-14.7-3.1-26.3,9.7c-8.9,10-13.1,21.6-37.5,19.7l27,54.1 c13.5,0.8,30.5-8.5,34-14.3L386.1,251.1L386.1,251.1z"></path> <path class="st2" d="M645.2,247.3l-3.9,8.1l11.2,3.1l-3.5,7l-11.2-3.1l-3.5,7l11.2,3.1l-3.5,7l-11.2-3.1l-3.5,7l11.2,3.1l-3.5,7 l-11.2-3.1l-5,9.7c-1.9-0.8-4.2-1.2-6.2-2.3l26.3-52.1C641,246.1,642.9,246.9,645.2,247.3L645.2,247.3z"></path> <path class="st2" d="M614.7,250c0.8-3.9-7.7-8.1-14.3-13.5l8.9-18.2c3.5,1.9,7.3,5,11.6,9.3c1.2,1.2,1.9,2.3,2.7,3.5L614.7,250 L614.7,250z"></path> <path class="st3" d="M594.2,217.9c2.3-3.1,7.7-3.5,14.7,0.4l-8.9,18.2C593.9,231.4,588.8,225.2,594.2,217.9L594.2,217.9z"></path> <path class="st3" d="M639.1,245.3l-26.3,52.5c-7.3-3.1-13.5-7.3-15.5-10.4l17-35.9c0.4-0.4,0.4-0.8,0.4-1.2l8.9-18.9 C627.8,236.8,631.7,242.2,639.1,245.3L639.1,245.3z"></path> <path class="st3" d="M645.2,247.3c3.5,0.8,7.7,0.8,12.7,0.4l-5.4,10.8l-11.2-3.1L645.2,247.3L645.2,247.3z"></path> <polygon class="st3" points="637.9,262.3 649.1,265.4 645.6,272.4 634.4,269.3 "></polygon> <polygon class="st3" points="630.9,276.2 642.1,279.3 638.7,286.3 627.5,283.2 "></polygon> <path class="st3" d="M635.2,293.2l-4.2,8.1c-3.9,0.4-8.1-0.4-12.4-1.5l5-9.7L635.2,293.2L635.2,293.2z"></path> <path class="st2" d="M600,236.4l-5,10c-3.5-3.1-7.3-6.6-11.2-10l9.3-16.6C590,226.4,594.2,231.8,600,236.4L600,236.4z"></path> <path class="st3" d="M613.9,251.1c-0.4,0.4-0.8,0.8-1.2,1.2c-5,3.5-10.8,0-17.8-5.8l5-10C607.8,242.6,617,247.3,613.9,251.1 L613.9,251.1z"></path> <path class="st12" d="M583.8,236.4c11.6,9.7,21.2,20.9,29,15.5c0.4-0.4,0.8-0.8,1.2-1.2c5.4-7-28.6-16.2-20.9-31.3L583.8,236.4 L583.8,236.4z M613.9,251.1c5.8-7.3-31.3-17-19.7-33.2c3.5-4.6,14.7-3.1,26.3,9.7c8.9,10,12.7,21.6,37.5,19.7l-27,54.1 c-13.5,0.8-30.5-8.5-34-14.3L613.9,251.1L613.9,251.1z"></path> <path class="st2" d="M534,234.9c-2.3,1.9-6.6,4.6-11.2,7.7v37.5c5.4-3.1,10.8-6.6,15.8-9.3v-38.6C536.3,233,534.8,233.7,534,234.9 L534,234.9z"></path> <path class="st2" d="M559.1,224.9c-0.4,0-0.4,0-0.8,0l-5.4,40.6c0.4,0,0.4,0,0.8,0c4.2,0,8.5,1.5,12.4,3.5l12-36.7 C572.2,228,565.7,224.9,559.1,224.9L559.1,224.9z"></path> <path class="st2" d="M612.8,252.3c-5,3.5-10.8,0-17.4-5.4L580,279.3c6.2,5.4,12,10,17.4,8.1l17-35.9 C613.6,251.5,613.2,251.9,612.8,252.3L612.8,252.3z"></path> <path class="st2" d="M387.2,252.3c-0.4-0.4-0.8-0.8-1.2-1.2l17,35.9c5.4,1.9,10.8-2.7,17.4-8.1L405,246.5 C398,252.3,392.2,255.8,387.2,252.3L387.2,252.3z"></path> <path class="st2" d="M500,252.3c-1.5,0-3.5-0.4-6.2-1.5v37.5c2.3,0.8,4.2,1.2,6.2,1.2c1.9,0,3.9-0.4,5.8-1.2v-37.5 C503.5,251.5,501.5,252.3,500,252.3L500,252.3z"></path> <path class="st2" d="M440.9,224.9c-6.6,0-13.1,3.1-18.9,7.3l12,36.7c3.9-2.3,7.7-3.5,12.4-3.5c0.4,0,0.4,0,0.8,0l-5.4-40.6 C441.3,224.9,441.3,224.9,440.9,224.9L440.9,224.9z"></path> <path class="st2" d="M466,234.9c-1.2-0.8-2.7-1.9-4.2-3.1v38.6c5,2.7,10.4,6.2,15.8,9.3v-37.5C472.6,239.5,468.7,236.8,466,234.9 L466,234.9z"></path> <path class="st3" d="M477.6,242.6v37.5c5.8,3.5,11.6,7,16.6,8.5v-37.5C489.2,249.2,483,245.7,477.6,242.6L477.6,242.6z"></path> <path class="st3" d="M441.7,224.9l5.4,40.6c4.2,0.4,9.3,2.3,14.7,5.4v-38.6C456.7,228.3,449.4,224.9,441.7,224.9L441.7,224.9z"></path> <path class="st3" d="M404.6,246.9l15.5,32.4c4.2-3.9,8.9-7.7,13.9-10.4l-12-36.7C415.8,236.4,410,242.2,404.6,246.9L404.6,246.9z"></path> <path class="st3" d="M505.8,250.7v37.5c5-1.5,10.8-5,16.6-8.5v-37.5C517,245.7,510.8,249.2,505.8,250.7L505.8,250.7z"></path> <path class="st3" d="M538.2,231.8v38.6c5.4-3.1,10.4-5,14.7-5.4l5.4-40.6C550.6,224.9,543.3,228.3,538.2,231.8L538.2,231.8z"></path> <path class="st3" d="M578,231.8l-12,36.7c5,2.7,9.7,7,13.9,10.4l15.5-32.4C590,242.2,584.2,236.4,578,231.8L578,231.8z"></path> <path class="st12" d="M500,289.8c13.5,0,39.4-24.7,53.7-24.7c18.9,0,31.7,26.7,43.3,22l17-35.9c-0.4,0.4-0.8,0.8-1.2,1.2 c-12.7,8.9-30.9-27.4-53.7-27.4c-10.8,0-20.9,6.6-25.1,10c-6.6,5.4-26.3,17.4-34,17.4s-27-12-34-17.4c-4.6-3.5-14.3-10-25.1-10 c-23.2,0-40.9,36.7-53.7,27.4c-0.4-0.4-0.8-0.8-1.2-1.2l17,35.9c11.6,4.2,24.3-22,43.3-22C460.6,265,486.5,289.8,500,289.8 L500,289.8L500,289.8z"></path> <path class="st7" d="M500.8,215.6c35.1,0,63.3-15.5,63.3-34.4s-28.2-34.4-63.3-34.4c-34.8,0-63.3,15.5-63.3,34.4 C437.4,200.1,465.6,215.6,500.8,215.6L500.8,215.6z"></path> <path class="st13" d="M500.8,215.6c35.1,0,63.3-15.5,63.3-34.4s-28.2-34.4-63.3-34.4c-34.8,0-63.3,15.5-63.3,34.4 C437.4,200.1,465.6,215.6,500.8,215.6L500.8,215.6L500.8,215.6z"></path> <path class="st8" d="M500.8,209.8c30.9,0,56.4-12.7,56.4-28.6s-25.1-28.6-56.4-28.6s-56.4,12.7-56.4,28.6 C444.4,197,469.5,209.8,500.8,209.8L500.8,209.8z"></path> <path class="st14" d="M500.8,209.8c30.9,0,56.4-12.7,56.4-28.6s-25.1-28.6-56.4-28.6s-56.4,12.7-56.4,28.6 C444.4,197,469.5,209.8,500.8,209.8L500.8,209.8L500.8,209.8z"></path> <path class="st2" d="M500.8,202.8c25.1,0,46-8.1,46-18.2s-20.5-18.2-46-18.2c-25.5,0-46,8.1-46,18.2 C454.8,194.7,475.3,202.8,500.8,202.8L500.8,202.8z"></path> <path class="st15" d="M500.8,202.8c25.1,0,46-8.1,46-18.2s-20.5-18.2-46-18.2c-25.5,0-46,8.1-46,18.2 C454.8,194.7,475.3,202.8,500.8,202.8L500.8,202.8L500.8,202.8z"></path> <path class="st16" d="M500.4,171.6c-24.3,0-44,19.7-44,44s19.7,44,44,44H500c24.3,0,44-19.7,44-44s-19.7-44-44-44H500.4 L500.4,171.6z"></path> <path class="st7" d="M493,252.3l-8.9-15.5l-16.6-2.7l-4.2,5c0,0.4,0.4,0.4,0.4,0.8l0.8,1.2c5.4,7.7,13.5,13.9,23.2,16.6l1.5,0.4 L493,252.3L493,252.3z"></path> <polygon class="st7" points="481.8,209.4 488.8,231.4 511.6,231.4 518.5,209.4 500.4,196.3 "></polygon> <path class="st7" d="M500.4,187.4L500.4,187.4l13.9-8.9v-4.6c-4.2-1.5-8.9-2.3-13.5-2.3c-4.6,0-9.3,0.8-13.5,2.3v4.2L500.4,187.4 L500.4,187.4z"></path> <path class="st7" d="M474.9,202.5l0.4-17.4l-3.5-2.7c-1.9,1.5-3.5,3.5-5,5.4l0,0c-5,6.2-8.5,13.5-9.7,22l3.9,1.5L474.9,202.5 L474.9,202.5z"></path> <path class="st7" d="M516.6,236.8l-8.9,15.5l3.9,6.2l1.5-0.4c9.7-3.1,17.8-8.9,23.2-17l0.4-0.4c0.4-0.4,0.4-0.8,0.8-0.8l-4.6-5.8 L516.6,236.8L516.6,236.8z"></path> <path class="st7" d="M525.9,202.5l13.9,8.9l3.9-1.5c-1.2-8.1-4.6-15.8-9.7-22l0,0c-1.5-1.9-3.5-3.9-5.4-5.4l-3.5,2.7L525.9,202.5 L525.9,202.5z"></path> </g> </svg> 